<?xml version="1.0" encoding="utf-8"?>
<!-- Generator: Adobe Illustrator 19.2.0, SVG Export Plug-In . SVG Version: 6.00 Build 0)  -->
<svg version="1.1" baseProfile="tiny" id="vectorized"
	 xmlns="http://www.w3.org/2000/svg" xmlns:xlink="http://www.w3.org/1999/xlink" x="0px" y="0px" viewBox="0 0 180 34"
	 xml:space="preserve">
<g>
	<path fill="#FA5B35" d="M16.451,2.055c7.861,0,14.113,6.252,14.113,14.113c0,7.86-6.252,14.113-14.113,14.113
		S2.338,24.028,2.338,16.167C2.338,8.307,8.59,2.055,16.451,2.055z M23.492,12.617V10.28H9.409v2.337H23.492z M21.155,22.055h2.337
		v-7.071H9.409v7.071h2.337v-2.671c0-0.758,0.183-1.184,0.456-1.487c0.303-0.364,0.759-0.577,1.305-0.577
		c0.546,0,1.001,0.212,1.305,0.577c0.273,0.303,0.456,0.729,0.456,1.487v2.671h2.367v-2.671c0-0.758,0.182-1.184,0.456-1.487
		c0.303-0.364,0.758-0.577,1.305-0.577s1.001,0.212,1.305,0.577c0.273,0.303,0.456,0.729,0.456,1.487V22.055z"/>
	<path fill="#323232" d="M39.161,10.856c0,2.549,3.642,3.065,6.374,4.643c1.699,0.971,3.096,2.55,3.096,5.22
		c0,3.824-3.126,6.222-6.586,6.222s-5.949-1.669-6.92-2.731l1.366-2.883h0.121c1.153,1.123,2.914,2.186,5.189,2.186
		c1.487,0,3.096-0.88,3.096-2.61c0-2.58-3.642-3.096-6.373-4.674c-1.7-0.971-3.096-2.549-3.096-5.22
		c0-3.824,3.156-6.222,6.677-6.222c3.308,0,5.554,1.669,6.525,2.58l-1.366,2.883h-0.122c-1.184-1.062-2.671-2.033-4.734-2.033
		C40.77,8.216,39.161,9.096,39.161,10.856z M55.914,26.486h-2.428l-4.31-12.14h3.582l2.125,6.161h0.121l3.005-8.589h2.428
		l3.157,8.68h0.122l3.035-8.68h3.399l-5.189,14.568h-2.367l-3.339-9.166h-0.121L55.914,26.486z M75.247,9.339h-3.612v-3.49h3.612
		V9.339z M75.186,26.486h-3.49V11.918h3.49V26.486z M83.319,26.941c-2.063,0-4.066-0.789-5.463-2.125l0.971-2.61h0.122
		c1.093,0.971,2.488,1.73,4.097,1.73c1.214,0,2.003-0.516,2.003-1.426c0-0.941-1.002-1.305-2.246-1.7
		c-2.003-0.637-4.644-1.609-4.644-4.644c0-2.792,2.185-4.704,5.311-4.704c1.7,0,3.43,0.607,4.856,1.73l-0.971,2.64h-0.122
		c-1.032-0.819-2.367-1.366-3.49-1.366c-1.365,0-2.154,0.516-2.154,1.426c0,0.941,1.001,1.305,2.246,1.7
		c2.003,0.638,4.644,1.608,4.644,4.644C88.479,25.029,86.294,26.941,83.319,26.941z M95.793,26.941
		c-2.063,0-4.066-0.789-5.463-2.125l0.972-2.61h0.121c1.093,0.971,2.489,1.73,4.097,1.73c1.214,0,2.003-0.516,2.003-1.426
		c0-0.941-1.002-1.305-2.246-1.7c-2.003-0.637-4.644-1.609-4.644-4.644c0-2.792,2.186-4.704,5.312-4.704
		c1.699,0,3.429,0.607,4.855,1.73l-0.971,2.64h-0.122c-1.032-0.819-2.368-1.366-3.49-1.366c-1.366,0-2.155,0.516-2.155,1.426
		c0,0.941,1.001,1.305,2.246,1.7c2.003,0.638,4.644,1.608,4.644,4.644C100.953,25.029,98.768,26.941,95.793,26.941z M113.821,12.799
		v-0.88h3.187V32.86h-3.49v-7.436c-1.002,0.94-2.458,1.517-3.854,1.517c-4.127,0-6.768-3.187-6.768-7.587
		c0-4.127,2.823-7.891,7.132-7.891c1.335,0,2.641,0.516,3.672,1.335H113.821z M113.518,15.712c-0.729-0.668-1.882-1.062-2.944-1.062
		c-2.488,0-4.097,1.942-4.097,4.674c0,2.458,1.396,4.431,3.885,4.431c1.184,0,2.307-0.455,3.156-1.366V15.712z M119.952,11.918h3.49
		v8.71c0,1.274,0.212,1.821,0.577,2.276c0.455,0.546,1.184,0.91,2.003,0.91s1.548-0.364,2.003-0.91
		c0.364-0.456,0.577-1.002,0.577-2.276v-8.71h3.49v8.346c0,2.367-0.638,3.854-1.73,4.917c-1.092,1.093-2.64,1.76-4.491,1.76
		c-1.7,0-3.187-0.637-4.249-1.699c-1.062-1.062-1.669-2.58-1.669-4.978V11.918z M134.489,19.354c0-4.644,3.156-7.891,7.587-7.891
		s7.587,3.247,7.587,7.587c0,4.644-3.156,7.891-7.587,7.891S134.489,23.694,134.489,19.354z M142.077,14.65
		c-2.337,0-4.006,1.973-4.006,4.552c0,2.58,1.669,4.553,4.006,4.553s4.006-1.973,4.006-4.553
		C146.083,16.623,144.414,14.65,142.077,14.65z M161.5,23.633v2.701c-0.94,0.395-1.973,0.607-3.125,0.607
		c-1.549,0-2.701-0.455-3.49-1.244c-0.851-0.85-1.275-2.094-1.275-4.31v-6.434h-3.338v-3.035h3.338V7.062h3.49v4.856h4.4v3.035h-4.4
		v6.889c0,0.759,0.152,1.184,0.395,1.457c0.425,0.485,1.123,0.607,1.882,0.607c0.789,0,1.729-0.182,2.003-0.273H161.5z
		 M174.46,22.237l1.305,2.428c-1.365,1.457-3.399,2.276-5.706,2.276c-4.248,0-7.436-3.004-7.436-7.587
		c0-4.188,2.55-7.891,7.072-7.891c3.854,0,6.434,3.065,6.434,7.284V19.9h-9.863c0.091,2.276,1.669,3.976,3.976,3.976
		c1.487,0,2.853-0.607,4.097-1.639H174.46z M172.639,17.169c-0.03-1.366-1.093-2.731-2.883-2.731c-1.761,0-2.944,1.184-3.309,2.731
		H172.639z"/>
</g>
</svg>
